Patient4_TMGait_0pt4_02_left_34_EMG.mot
version=1
nRows=23
nColumns=33
inDegrees=no
endheader
time	1LAddLong	2LGlutMax	3LGlutMed	4LIliopsoas	5LSemiMemb	6LBicFemLong	7LRecFem	8LVastMed	9LVastLat	10LGasMed	11LTibAnt	12lTibPost	13LPeroneusLong	14LSol	15LExtDigLong	16LFlexDigLong	17RAddLong	18RGlutMax	19RGlutMed	20RIliopsoas	21RSemiMemb	22RBicFemLong	23RRecFem	24RVastMed	25RVastLat	26RGasMed	27RTibAnt	28RTibPost	29RPeroneusLong	30RSol	31RExtDigLong	32RFlexDigLong
45.935	0.028229	0.10574	0.14633	0.007324	0.009003	0.060883	-0.49637	-0.010529	-0.019379	-0.04715	-0.019531	0.014343	0.1889	0.019073	0.055237	0.011749	-0.031586	-0.19989	-0.21759	0.088043	-0.087585	-0.040131	0.38742	-0.099182	-0.055847	0.006714	0.003357	-0.005188	-0.019989	-0.057678	0.002747	-0.012512
45.936	0.023499	0.12054	0.017548	0.008698	-0.005646	0.023499	-0.54672	0.004883	0.006104	0.071106	-0.019226	-0.071411	0.16617	0.089111	0.06546	-0.004578	-0.014038	-0.16815	-0.25589	0.10132	-0.092468	-0.037689	0.39276	-0.12955	-0.065308	0.001984	0.024567	-0.004425	-0.002289	0.018768	-0.00061	-0.012512
45.937	0.014343	0.11704	-0.046234	-0.003967	-0.017395	0.081329	-0.5661	0.006561	0.057983	0.11276	-0.017242	0.12589	0.36697	0.063629	0.016022	-0.002594	-0.007782	-0.26352	-0.22614	0.098724	-0.084686	-0.053558	0.36758	-0.14358	-0.048065	-0.008698	0.040741	-0.007935	0.007782	0.082855	0.002594	-0.015869
45.938	0.014343	0.13657	-0.066376	-0.006561	-0.020142	0.12726	-0.56274	0.014648	0.11963	0.15411	0.003204	-0.007782	0.093079	-0.10086	0.002747	-0.004425	-0.01358	-0.25055	-0.28854	0.077972	-0.078735	-0.06485	0.34714	-0.13199	-0.046082	-0.004578	0.057373	-0.007782	-0.097961	0.12039	0.004425	-0.022888
45.939	-0.00061	0.18967	-0.121	0.004578	-0.009766	0.11475	-0.63156	0.008087	0.11108	0.11688	0.006409	-0.042572	0.13351	-0.080414	0.016174	-0.025787	0.004578	-0.22995	-0.27222	0.052032	-0.079041	-0.080261	0.30563	-0.1358	-0.046844	0.001373	0.086517	-0.014648	-0.27298	0.10239	0.001373	-0.016022
45.94	0.005798	0.19455	-0.21912	0.031586	-0.012512	0.053101	-0.65536	0.006104	0.13168	0.097046	0.025635	-0.032501	-0.29846	0.083923	-0.028229	-0.024414	0.031738	-0.20447	-0.071716	0.066681	-0.080719	-0.080261	0.34943	-0.14175	-0.049438	0.007324	0.041199	-0.005188	-0.34012	0.07019	0.002899	-0.02243
45.941	0.01358	0.24994	-0.090332	0.0383	-0.050049	0.098267	-0.62836	-0.00351	0.1767	0.080261	-0.002136	-0.011597	-0.021057	-0.02121	-0.032959	-0.029449	0.036621	-0.16739	-0.071869	0.070801	-0.068665	-0.063171	0.34485	-0.096893	-0.043793	0.002289	0.003052	-0.009155	-0.21484	0.003357	0.000153	-0.022736
45.942	0.014038	0.25436	0.049133	0.035248	-0.11154	0.005188	-0.58731	-0.006714	0.20142	0.11337	-0.055695	-0.014801	0.70862	-0.087891	-0.038757	-0.027008	0.027618	-0.18921	-0.12054	0.072784	-0.045624	-0.074463	0.32516	-0.079193	-0.023499	-0.004272	-0.023804	-0.01297	-0.067596	-0.006714	0.001068	-0.019836
45.943	0.005951	0.2977	0.1561	-0.006714	-0.1294	-0.24216	-0.5809	-0.025024	0.15411	0.16281	-0.008087	-0.013885	0.36758	0.064087	0.023651	-0.033112	0.002747	-0.14999	-0.22568	0.007782	-0.033875	-0.07843	0.3093	-0.052948	-0.018311	0.001373	-0.042725	-0.002899	0.10956	0.037689	-0.000305	-0.012665
45.944	0.032501	0.31677	0.18295	-0.018616	-0.11841	-0.24048	-0.54764	0	0.094604	0.18646	0.044861	-0.006714	0.16556	0.12695	-0.02655	-0.025787	-0.011902	-0.12405	-0.16861	-0.007019	-0.049438	-0.08606	0.24124	-0.010681	-0.016479	0.005646	-0.04364	-0.005951	0.27359	0.1178	0.001984	-0.012665
45.945	0.07431	0.31097	0.036926	-0.005798	0.041351	-0.11078	-0.48721	-0.017548	0.025635	0.12756	0.000153	0.001221	-0.34821	-0.024414	-0.11917	-0.016937	0.006409	-0.1268	-0.23514	0.009766	-0.04425	0.026093	0.26321	-0.002899	0.006714	-0.000916	-0.06073	-0.00412	0.45975	0.34698	0.004883	-0.011902
45.946	-0.053864	0.37277	0.18356	-0.006104	0.11429	0.1297	-0.45258	-0.055237	0.046082	0.11032	0.006561	-0.009766	-0.34714	-0.28122	-0.1889	-0.026398	0.003204	-0.10971	-0.18143	-0.003052	-0.046539	0.10147	0.25528	-0.009003	0.010529	-0.004578	-0.082092	-0.008545	0.38055	0.48721	0.002136	-0.014191
45.947	0.023804	0.39795	0.15884	0.011902	0.061798	0.19409	-0.4248	0.011139	0.062408	-0.10132	0.019836	-0.002899	-0.32028	-0.25375	-0.063019	-0.014954	0.031128	-0.079041	-0.075531	-0.080414	-0.031586	0.023956	0.28122	-0.030212	-0.01358	-0.001526	-0.068054	-0.005646	0.17502	0.42511	0.001068	-0.012207
45.948	0.022278	0.46539	0.20264	0.006561	0.019379	0.1564	-0.41962	0.005035	0.033112	-0.38361	-0.015411	-0.001984	-0.38025	-0.13092	-0.060577	-0.015411	0.019836	-0.03067	0.005951	-0.1178	-0.043945	-0.006409	0.3067	-0.04715	-0.011139	-0.011444	-0.000916	-0.00473	-0.003967	0.21652	0.001373	-0.012207
45.949	0.009766	0.48828	0.25162	-0.000763	0.016327	0.13733	-0.36972	-0.002594	0.00946	-0.22934	0.011139	-0.007782	-0.008392	-0.01358	0.054321	-0.02121	0.023804	-0.08728	-0.15671	-0.065002	-0.027618	0.027771	0.30594	-0.019073	-0.002747	-0.010834	0.032806	-0.005646	-0.073242	-0.069427	-0.001526	-0.005493
45.95	0.004272	0.51636	0.16235	0.016327	0.014648	0.15717	-0.33829	-0.007782	0.085754	-0.10925	0.000305	-0.000916	0.06073	-0.10223	0.13077	-0.011444	0.014801	-0.13367	-0.39352	-0.066681	0.001984	0.024414	0.29831	-0.03067	-0.009003	-0.003052	0.017395	-0.002899	-0.12558	-0.35965	-0.000458	-0.003815
45.951	0.009003	0.48767	0.09201	0.020905	-0.005341	0.14923	-0.36926	0.005493	0.12924	-0.070801	-0.044556	0.001221	0.041504	-0.016174	0.070343	0.002899	0.041809	-0.13825	-0.44937	-0.05722	-0.001526	0.021973	0.29511	-0.06073	-0.011749	-0.00473	-0.022888	-0.004272	0.005493	-0.33905	0.001831	0.000763
45.952	0.003967	0.49759	0.0914	0.008087	-0.031891	0.033722	-0.48019	0.012665	0.16617	-0.043182	-0.034027	-0.010376	0.36102	0.14145	0.015259	-0.011749	0.03952	-0.13412	-0.3595	-0.085602	-0.024719	0.011292	0.31342	-0.073547	-0.007629	0.000458	-0.02655	-0.007629	0.091553	-0.18341	0.002136	-0.001373
45.953	0.002899	0.50217	0.066833	-0.003967	-0.080872	0.01236	-0.54321	0.018768	0.19531	-0.050201	-0.058289	-0.016479	0.79865	0.15106	-0.064087	-0.00946	0.016632	-0.14679	-0.15976	-0.099335	-0.040131	0.007477	0.2713	-0.041504	0.00351	0.002289	-0.038147	-0.009613	0.09552	-0.006409	0.00061	-0.002899
45.954	-0.004578	0.49896	-0.015411	-0.004883	-0.14694	-0.008545	-0.54855	0.016937	0.2536	-0.011597	-0.001831	-0.01236	0.21332	-0.037994	-0.041199	-0.019531	0.041046	-0.16541	-0.066681	0.022736	-0.044861	0.002136	0.24384	0.013123	-0.00061	0.007324	-0.001831	-0.006714	0.13245	-0.096741	0.001984	-0.009155
45.955	-0.016937	0.4686	-0.083618	-0.011902	-0.19745	-0.043945	-0.46417	0.019379	0.22797	-0.005188	0.025635	-0.021973	-0.41672	-0.010223	0.089417	-0.010529	0.024719	-0.16693	-0.047455	0.084076	-0.046539	0.019379	0.24612	0.01709	0.010071	0.021515	-0.008392	0.000458	0.45715	-0.12619	0.00824	-0.011139
45.956	-0.003815	0.31311	-0.10056	0.027008	-0.19043	-0.081482	-0.33234	0.001221	-0.054016	-0.029907	-0.002747	-0.003967	-0.41977	-0.12756	0.08667	0.004425	-0.021973	-0.093689	-0.061188	0.024414	-0.056	0.015411	0.22324	0.00824	0.004272	0.03479	-0.003052	-0.003815	0.12833	-0.18448	0.001678	-0.009766
45.957	-0.010223	0.30655	-0.066833	0.018768	0.035706	-0.054474	-0.22095	-0.026855	-0.21835	0.000763	-0.0354	-0.000763	-0.26001	-0.38498	-0.069275	0.004425	-0.025024	-0.064392	-0.017242	-0.031281	-0.050201	0.003815	0.22522	-0.02243	-0.003357	0.039063	-0.076141	-0.002899	-0.31342	-0.16464	0.003967	-0.009918
